<svg width="400" height="400" version="1.1" viewBox="0 0 106 106" xmlns="http://www.w3.org/2000/svg" xmlns:xlink="http://www.w3.org/1999/xlink">
 <defs>
  <linearGradient id="logo-a">
   <stop stop-color="#00c3f3" offset="0"/>
   <stop stop-color="#2affd5" offset="1"/>
  </linearGradient>
  <linearGradient id="logo-c" x1="116" x2="61.9" y1="78.2" y2="132" gradientTransform="matrix(1.25 0 0 1.25 -67.6 -68.6)" gradientUnits="userSpaceOnUse" xlink:href="#logo-a"/>
  <linearGradient id="logo-d" x1="353" x2="353" y1="302" y2="230" gradientTransform="matrix(.234 .234 -.234 .234 37.3 -118)" gradientUnits="userSpaceOnUse" xlink:href="#logo-a"/>
  <linearGradient id="logo-e" x1="436" x2="436" y1="286" y2="212" gradientTransform="matrix(.234 .234 -.234 .234 37.3 -118)" gradientUnits="userSpaceOnUse" xlink:href="#logo-a"/>
  <linearGradient id="logo-b" x1="397" x2="397" y1="440" y2="242" gradientTransform="matrix(.234 .234 -.234 .234 37.8 -117)" gradientUnits="userSpaceOnUse" xlink:href="#logo-a"/>
 </defs>
 <path d="m46.7 15.3c-17.7-7e-6 -33.7 10.7-40.5 27.1-6.78 16.4-3.03 35.2 9.5 47.8 12.5 12.5 31.4 16.3 47.8 9.5 16.4-6.78 27.1-22.8 27.1-40.5a3.48 3.48 0 0 0-3.48-3.48 3.48 3.48 0 0 0-3.48 3.48c0 14.9-8.98 28.4-22.8 34.1-13.8 5.71-29.6 2.56-40.2-8-10.6-10.6-13.7-26.4-8-40.2 5.71-13.8 19.1-22.8 34.1-22.8a3.48 3.48 0 0 0 3.48-3.48 3.48 3.48 0 0 0-3.48-3.48z" fill="url(#logo-c)"/>
 <path d="m69.2 15.3-24.7 14.7 9.99 9.99z" fill="url(#logo-d)"/>
 <path d="m96 27.4-33.9 20.2 13.7 13.7z" fill="url(#logo-e)"/>
 <path d="m103 2.92-45.7 28.1a30 30 0 0 0-31.6 6.91 30 30 0 0 0 0 42.4 30 30 0 0 0 42.4 0 30 30 0 0 0 8.78-21.3 30 30 0 0 0-1.88-10.3zm-43 42.9a18.7 18.7 0 0 1 5.52 13.3 18.7 18.7 0 0 1-18.7 18.7 18.7 18.7 0 0 1-18.7-18.7 18.7 18.7 0 0 1 18.7-18.7 18.7 18.7 0 0 1 13.2 5.44z" fill="url(#logo-b)"/>
</svg>
